<svg xmlns="http://www.w3.org/2000/svg" width="351.31" height="42.38" viewBox="0 0 351.31 42.38" role="img" aria-label="Hola, soy Juan Sebastián">
<title>Hola, soy Juan Sebastián</title>
<path fill="#ede4ff" transform="translate(-0.307 30.375) scale(0.040000 -0.040000)" d="M66 171Q68 174 66 185Q62 221 65 235Q61 289 62.5 298.0Q64 307 68 308Q64 314 60.5 352.0Q57 390 59 403Q57 411 58.0 422.5Q59 434 61 438Q59 440 58 453V498L60 524V546L66 577Q63 582 71 595Q61 616 92 647Q93 649 115 660Q133 661 139.5 660.0Q146 659 159.5 658.0Q173 657 180 655Q198 649 198 623V606Q200 570 200 552V530Q200 517 198 515Q199 511 198 496V479Q195 448 196 443L189 390Q197 387 246 387H296Q340 387 351.5 387.5Q363 388 366.5 394.0Q370 400 372.0 410.0Q374 420 375.0 433.0Q376 446 377 449Q383 454 380 492Q380 495 384 507Q384 521 388 539Q388 558 394.5 572.5Q401 587 404 597Q409 614 428 626Q453 644 476 649H494Q521 644 512 598Q512 583 504 559Q495 512 495 498Q495 484 487 447Q489 428 487.5 422.0Q486 416 486 407Q484 385 484 377Q482 347 482.0 329.0Q482 311 479 290Q479 269 472 247L469 183Q469 176 476 80Q482 74 480.0 56.5Q478 39 473.0 32.0Q468 25 462.5 24.0Q457 23 446 23Q423 10 409 13Q397 13 384 21Q363 32 357 48Q357 55 354.5 65.0Q352 75 354.0 86.5Q356 98 355.5 111.0Q355 124 355 141L356 153Q354 157 358.0 166.0Q362 175 359 180V207L364 258Q354 265 363 291L365 299Q353 296 343 296Q315 289 281 289L191 292V281Q189 265 190 233V214Q191 188 191 140Q195 88 195 65L194 58Q194 50 192 44Q192 25 182.5 18.0Q173 11 152.0 9.0Q131 7 114 20Q90 32 89.0 40.0Q88 48 83 61Q78 69 76 80Q76 112 75 116Q72 120 72 130Q72 143 66 171ZM781 295Q774 335 742 332Q724 331 711 308Q693 273 695.5 217.5Q698 162 703.5 137.5Q709 113 723 95Q731 81 747 82Q775 82 788 129L796 153Q801 158 798 163Q808 188 809 222Q799 229 797 235Q791 252 791 258Q784 263 783.0 277.0Q782 291 781 295ZM598 201 602 252Q609 321 644 370Q678 411 740 412H746Q804 412 830 387Q858 365 871.5 339.0Q885 313 889.0 301.0Q893 289 894 266Q896 223 877 217Q891 122 860 66Q850 43 831 16Q817 -2 781 -4Q745 -4 718.5 0.0Q692 4 660.0 25.5Q628 47 615 96Q601 143 598 201ZM1014 535 1021 594 1022 625Q1022 638 1027 645L1037 659Q1064 680 1072.0 683.0Q1080 686 1095.5 682.5Q1111 679 1114 676L1125 667Q1134 662 1134 651Q1139 645 1137 642Q1131 635 1117 524L1109 388L1104 361Q1104 348 1105 346V328Q1103 308 1101 303Q1101 298 1099 292Q1101 290 1101.0 276.5Q1101 263 1098 260Q1096 244 1096.0 229.5Q1096 215 1098.5 199.5Q1101 184 1100 169L1104 131V116Q1106 98 1106 87L1111 35L1115 8Q1118 -9 1112.5 -25.0Q1107 -41 1096 -45Q1065 -58 1028 -28H1020Q1013 -20 1009 -6Q1001 -2 1002.0 8.0Q1003 18 998.0 26.0Q993 34 993 40Q993 53 991 63L992 71Q989 74 989 80L987 98V106Q987 114 986.5 117.0Q986 120 989 127Q986 131 988 156Q994 233 994 262L995 286V315Q996 339 996.5 376.0Q997 413 1000 416L999 425Q999 449 1006.5 490.5Q1014 532 1014 535ZM1414 287Q1413 309 1404.0 320.5Q1395 332 1371 334Q1364 329 1352.5 300.5Q1341 272 1338 240Q1328 192 1328 144Q1329 95 1344 72Q1346 68 1348 69Q1353 69 1364 89Q1417 185 1414 287ZM1445 96 1430 57Q1430 55 1401 14Q1392 -5 1367.5 -7.0Q1343 -9 1320 -2Q1289 9 1273.0 24.0Q1257 39 1241.5 74.5Q1226 110 1225 133Q1220 166 1220 175V199Q1220 235 1223 241Q1224 245 1228 262Q1233 304 1252 342Q1289 415 1328 417H1333Q1335 416 1339 416H1352Q1387 413 1395 410Q1410 406 1421 406L1447 401Q1459 402 1478.5 396.0Q1498 390 1499.5 387.0Q1501 384 1505.0 365.0Q1509 346 1510.5 337.5Q1512 329 1513 320Q1521 247 1539 184Q1540 181 1541.0 175.0Q1542 169 1548.0 151.5Q1554 134 1557.0 122.0Q1560 110 1568 90Q1574 75 1586 55Q1608 24 1563 7Q1557 5 1542 5Q1539 5 1523 15Q1513 15 1504 26L1496 28Q1489 35 1484 35Q1482 37 1448 116Q1445 105 1445 96ZM1760 98Q1775 96 1776.5 80.5Q1778 65 1778.0 38.5Q1778 12 1763 -33Q1760 -47 1752 -55Q1752 -58 1742 -81Q1736 -111 1697 -131Q1689 -137 1683 -138Q1660 -143 1645 -132Q1639 -129 1642 -125Q1642 -118 1653.5 -101.5Q1665 -85 1668.0 -78.5Q1671 -72 1676 -53V-15Q1676 20 1660.0 33.5Q1644 47 1646 74Q1645 75 1646.0 83.5Q1647 92 1653.0 103.5Q1659 115 1668 121L1683 120Q1704 122 1720 116L1736 112Q1737 112 1760 98ZM2100 388Q2127 421 2174 423Q2251 426 2288.5 385.0Q2326 344 2328.5 304.0Q2331 264 2308 261Q2275 260 2265 270Q2256 269 2242 283Q2236 286 2226 306L2215 331Q2207 349 2195 351Q2180 345 2180 321Q2184 274 2225 231Q2225 231 2226.5 228.5Q2228 226 2241 212Q2320 125 2323 72Q2323 38 2309 27Q2266 -24 2197.0 -26.0Q2128 -28 2083 17Q2071 29 2071 40Q2065 59 2067 65Q2064 93 2067 107Q2073 139 2114 140Q2129 140 2133 122Q2146 71 2157.5 55.0Q2169 39 2195 40Q2228 42 2226.5 77.0Q2225 112 2193 142Q2183 154 2173.5 160.5Q2164 167 2161 170Q2160 173 2156 176Q2136 192 2105.5 229.0Q2075 266 2073 298Q2069 355 2100 388ZM2590 295Q2583 335 2551 332Q2533 331 2520 308Q2502 273 2504.5 217.5Q2507 162 2512.5 137.5Q2518 113 2532 95Q2540 81 2556 82Q2584 82 2597 129L2605 153Q2610 158 2607 163Q2617 188 2618 222Q2608 229 2606 235Q2600 252 2600 258Q2593 263 2592.0 277.0Q2591 291 2590 295ZM2407 201 2411 252Q2418 321 2453 370Q2487 411 2549 412H2555Q2613 412 2639 387Q2667 365 2680.5 339.0Q2694 313 2698.0 301.0Q2702 289 2703 266Q2705 223 2686 217Q2700 122 2669 66Q2659 43 2640 16Q2626 -2 2590 -4Q2554 -4 2527.5 0.0Q2501 4 2469.0 25.5Q2437 47 2424 96Q2410 143 2407 201ZM2902 315Q2902 299 2900.5 287.0Q2899 275 2899 272Q2899 241 2896.5 226.5Q2894 212 2894 203V158Q2894 100 2898.0 88.5Q2902 77 2912 73Q2923 70 2929.0 74.5Q2935 79 2940.5 88.5Q2946 98 2949.5 110.5Q2953 123 2960.0 137.5Q2967 152 2968.5 158.5Q2970 165 2977 175Q2991 229 2993 300V332Q2995 372 3008 399Q3015 415 3049 425L3064 426Q3084 426 3090 420Q3096 391 3091 338V269Q3093 219 3093 200Q3092 193 3094 82Q3093 81 3094 56Q3095 40 3091.5 -14.0Q3088 -68 3088 -79Q3077 -140 3063.5 -163.0Q3050 -186 3027 -203Q3011 -219 2970 -225Q2967 -224 2954 -224Q2894 -218 2876 -200Q2823 -173 2814.5 -160.5Q2806 -148 2804.0 -137.0Q2802 -126 2810 -100Q2825 -81 2849 -93Q2859 -98 2885 -113L2918 -129Q2925 -135 2932 -130Q2942 -124 2944 -124Q2961 -110 2977 -80Q2977 -70 2987 -50Q2987 -30 2999 9V20Q2999 35 3001.0 45.5Q3003 56 3003 62Q2995 47 2990.0 34.0Q2985 21 2978 12Q2977 6 2957 0L2920 -1Q2920 0 2914 0L2899 1Q2846 1 2832 15Q2825 24 2815 32Q2806 43 2804 60Q2801 63 2800 77V88L2798 100Q2799 102 2796 114Q2794 126 2794 153V165Q2794 254 2796 258Q2799 264 2799 269Q2797 274 2800 280L2802 294L2812 325Q2812 329 2818 350Q2824 356 2825 364Q2829 383 2829.5 390.0Q2830 397 2838 409Q2850 418 2873.5 415.5Q2897 413 2914 395L2903 351Q2904 344 2904 339ZM3588 451Q3593 466 3587 515Q3587 531 3578 562Q3510 551 3506 551Q3471 546 3457.5 546.0Q3444 546 3440 547Q3432 549 3432.0 564.5Q3432 580 3440.0 592.5Q3448 605 3455 608Q3470 617 3499 627Q3499 629 3548 643Q3579 657 3627 663Q3631 664 3633 664L3650 667H3679L3702 660Q3715 656 3743 631L3745 625Q3753 619 3753.0 617.0Q3753 615 3754 611Q3754 586 3740 581Q3736 580 3718 582Q3684 586 3675 580Q3675 570 3678 563Q3681 557 3690 510Q3690 503 3698.5 467.5Q3707 432 3709 388Q3720 364 3720 255Q3721 249 3721 238Q3718 232 3718 208Q3716 200 3716 188Q3714 181 3713.0 170.5Q3712 160 3711 154Q3708 137 3702.5 131.5Q3697 126 3694 102Q3694 100 3686.5 88.0Q3679 76 3673 72L3665 63Q3665 57 3645 37L3638 29Q3632 25 3612 3Q3611 -1 3588.5 -8.0Q3566 -15 3540 -8Q3526 -6 3510 10Q3506 9 3505 10Q3497 18 3473 28Q3471 26 3449 46Q3444 47 3412 84Q3411 89 3402 107Q3402 108 3397.5 123.5Q3393 139 3391 168V175Q3391 181 3403 211Q3423 234 3453 212Q3456 196 3464.0 183.5Q3472 171 3475 160Q3482 135 3511 102Q3522 91 3541 90Q3545 91 3572 114Q3576 118 3580 128Q3590 142 3590.5 145.0Q3591 148 3595 159Q3595 160 3603 181Q3612 197 3607 229Q3606 230 3606 236Q3603 260 3602 265V274Q3601 275 3601 277L3603 297Q3599 303 3594 329Q3584 372 3592 399Q3592 400 3590.0 407.5Q3588 415 3589 422ZM4146 277 4147 258Q4147 255 4153 195V183Q4153 159 4161 111Q4161 90 4182 38Q4187 35 4189 24L4188 14Q4190 9 4183 3Q4183 -4 4164.0 -4.0Q4145 -4 4140.0 -6.0Q4135 -8 4124 -4Q4120 -6 4100 4Q4091 6 4086 22L4078 41Q4078 59 4068 73Q4068 78 4063.5 91.0Q4059 104 4057 105Q4047 65 4032 43Q4032 38 4026 31L4016 12Q4016 10 4007 1Q4001 -12 3980 -12Q3961 -12 3934 -2Q3927 -1 3906 7Q3900 6 3887.5 10.5Q3875 15 3873 15Q3870 18 3859 25L3842 43Q3841 44 3838.5 52.5Q3836 61 3837.0 64.5Q3838 68 3837.0 75.0Q3836 82 3838 89Q3838 109 3842 133Q3841 136 3841.0 140.0Q3841 144 3845 155Q3844 160 3844 162L3849 201Q3849 215 3850 221V236Q3851 240 3851 247L3856 295Q3856 306 3857 309V319Q3859 321 3859 335L3868 363L3875 375Q3876 379 3886 384Q3902 394 3932 394Q3944 392 3958 384Q3961 385 3972 380Q3992 371 3974 329Q3970 302 3970 301Q3966 293 3966 288Q3960 256 3960 254Q3964 258 3957 242L3953 205Q3946 181 3947 152L3943 139Q3944 134 3942 108Q3944 105 3944 101L3945 93Q3944 90 3946.0 87.5Q3948 85 3957.5 85.5Q3967 86 3974 90Q3988 107 3993.0 125.5Q3998 144 3998 147Q4015 190 4019 197Q4024 224 4036 259Q4034 264 4036 279L4049 332Q4058 347 4058.0 350.5Q4058 354 4070 378Q4070 382 4076 394Q4083 405 4101 415H4104Q4126 417 4142 409Q4144 405 4144 395Q4146 385 4148 359V349L4144 327Q4152 302 4146 277ZM4457 287Q4456 309 4447.0 320.5Q4438 332 4414 334Q4407 329 4395.5 300.5Q4384 272 4381 240Q4371 192 4371 144Q4372 95 4387 72Q4389 68 4391 69Q4396 69 4407 89Q4460 185 4457 287ZM4488 96 4473 57Q4473 55 4444 14Q4435 -5 4410.5 -7.0Q4386 -9 4363 -2Q4332 9 4316.0 24.0Q4300 39 4284.5 74.5Q4269 110 4268 133Q4263 166 4263 175V199Q4263 235 4266 241Q4267 245 4271 262Q4276 304 4295 342Q4332 415 4371 417H4376Q4378 416 4382 416H4395Q4430 413 4438 410Q4453 406 4464 406L4490 401Q4502 402 4521.5 396.0Q4541 390 4542.5 387.0Q4544 384 4548.0 365.0Q4552 346 4553.5 337.5Q4555 329 4556 320Q4564 247 4582 184Q4583 181 4584.0 175.0Q4585 169 4591.0 151.5Q4597 134 4600.0 122.0Q4603 110 4611 90Q4617 75 4629 55Q4651 24 4606 7Q4600 5 4585 5Q4582 5 4566 15Q4556 15 4547 26L4539 28Q4532 35 4527 35Q4525 37 4491 116Q4488 105 4488 96ZM4930 37 4924 54 4913 121Q4908 140 4908 155L4912 199Q4912 210 4913 211Q4901 211 4877 182Q4875 179 4871 172Q4829 105 4821 11Q4813 -6 4800 -6Q4773 0 4770 0L4763 -1H4750Q4727 1 4720 17Q4716 22 4716 43V57L4713 112V194Q4713 208 4711 229Q4709 252 4710.0 301.5Q4711 351 4709.0 354.5Q4707 358 4707.0 364.0Q4707 370 4710.0 376.0Q4713 382 4737 389Q4750 397 4759 397Q4773 394 4795 385Q4810 382 4810 356Q4812 313 4810.5 294.0Q4809 275 4811 217Q4885 359 4943 388Q4948 393 4958.0 393.0Q4968 393 4981.0 383.0Q4994 373 4999.0 370.0Q5004 367 5010.5 360.0Q5017 353 5021 351Q5033 331 5026 257Q5025 246 5024.0 237.5Q5023 229 5023.0 201.0Q5023 173 5024 162Q5027 127 5027 121L5032 83Q5042 60 5042.5 47.5Q5043 35 5060 8Q5067 -7 5054 -16Q5034 -26 5032.5 -24.5Q5031 -23 5021.0 -26.5Q5011 -30 4985 -28Q4972 -25 4959 -12L4944 3Q4936 15 4933 29Q4928 34 4930 37ZM5566 -27Q5559 -34 5523 -34Q5498 -39 5464 -26L5443 -19L5412 -4Q5408 -4 5407.0 -4.5Q5406 -5 5402 -2Q5396 3 5388 6Q5368 20 5360 31Q5328 82 5328 116Q5328 120 5338 131Q5358 155 5388 155Q5400 154 5407 147L5440 104Q5448 96 5458 88L5471 74L5491 57Q5495 55 5499 55Q5503 53 5521 50Q5541 55 5555 61Q5564 70 5571 75L5585 91Q5587 93 5592 107Q5592 120 5592.5 124.5Q5593 129 5589 149Q5588 152 5575 165Q5569 177 5558 191Q5552 197 5500 223L5481 234L5463 250Q5450 254 5426 277Q5416 284 5411 288Q5405 290 5378 322Q5378 324 5361 360L5352 399L5356 425Q5350 451 5352 464Q5356 470 5362 488Q5359 503 5389 547Q5389 553 5433 595L5467 613L5483 620Q5492 621 5507.5 623.0Q5523 625 5554.0 623.0Q5585 621 5593 615Q5600 612 5633 588Q5677 549 5681 518Q5698 467 5683 409Q5683 405 5655 393L5630 394Q5598 398 5569 427Q5561 432 5557 455Q5556 479 5547 484Q5546 485 5539 502Q5522 524 5516.5 524.0Q5511 524 5504 521Q5468 492 5466 456Q5459 427 5484 385Q5495 369 5498 369Q5504 359 5521 344L5535 329L5577 298L5594 281L5613 269Q5629 262 5644 250Q5664 235 5693 194Q5699 185 5709 140V101L5704 78Q5699 73 5693 58Q5693 57 5682 31Q5679 26 5658 10Q5628 -14 5591 -26Q5583 -28 5566 -27ZM5985 320Q5989 335 5984 358Q5977 364 5965 364Q5950 364 5938 336Q5922 312 5914 283H5913Q5902 241 5902 238Q5918 234 5928.0 234.5Q5938 235 5951 245Q5974 267 5985 320ZM5982 176 5945 173Q5914 173 5896 179L5899 160Q5902 77 5945 51Q5957 46 5965.0 46.0Q5973 46 5986 54Q5990 58 5993 65Q5994 74 6003 73Q6044 125 6065 114Q6086 100 6086 92Q6086 88 6081 83V77Q6081 67 6068.5 41.0Q6056 15 6042 -3Q6035 -18 6024 -24Q5992 -44 5956 -40Q5948 -39 5945 -36Q5937 -34 5933 -35L5925 -34Q5916 -34 5910 -30Q5900 -24 5896 -24Q5870 -14 5864.5 -9.0Q5859 -4 5855.0 -2.0Q5851 0 5836 19Q5823 30 5821 33Q5815 42 5810.5 46.0Q5806 50 5805 64Q5801 69 5801 77L5797 85Q5797 92 5791 96Q5785 102 5785 111V119Q5781 121 5783 131V157L5782 166V173Q5781 177 5784 190L5783 199Q5784 200 5786 215Q5790 236 5795 241V250Q5796 253 5796.0 258.0Q5796 263 5798.5 269.0Q5801 275 5814 314L5830 349Q5837 364 5852 382Q5853 387 5860 400L5873 412Q5879 421 5891 425Q5905 432 5912 432L5940 436Q5945 435 5947 435H5960Q5982 433 5996 426Q6026 417 6040 403Q6071 368 6071.0 336.0Q6071 304 6061 281Q6036 224 6025 209Q6007 176 5982 176ZM6389 314 6386 315Q6388 314 6389 314ZM6263 58V49Q6286 18 6287 18Q6292 18 6310 24Q6311 24 6320.5 33.5Q6330 43 6334 46Q6346 53 6350 55Q6350 63 6357.0 71.5Q6364 80 6369.5 88.5Q6375 97 6377 101Q6383 109 6381 109Q6383 113 6387 126L6397 149L6408 199Q6410 206 6403 243V252Q6401 255 6401 258V259L6400 269Q6400 274 6397 286Q6395 295 6385 315H6374Q6356 306 6347 296Q6336 282 6319.0 246.0Q6302 210 6296 181L6290 157Q6277 130 6273 95L6268 81ZM6491 345Q6511 302 6511 273Q6511 215 6501 185Q6501 174 6499 168Q6490 102 6476 70Q6471 63 6465 48Q6459 31 6435 9Q6435 6 6420.0 -9.5Q6405 -25 6373 -35Q6336 -47 6325 -47Q6268 -56 6242 -30L6241 -31Q6221 -66 6193 -52Q6176 -43 6173.5 -40.0Q6171 -37 6170 -27Q6163 -9 6165 15L6170 48Q6167 65 6169 78V85Q6171 105 6172.0 161.5Q6173 218 6175.5 230.5Q6178 243 6178 254Q6190 391 6191.5 400.5Q6193 410 6193 465V520Q6193 536 6192.5 544.0Q6192 552 6196 555Q6188 578 6193 607V619Q6191 638 6201 655Q6208 664 6229.0 672.0Q6250 680 6264 681H6269Q6282 681 6292 674Q6304 669 6304 650Q6306 644 6304 637Q6305 630 6294.5 495.5Q6284 361 6284.0 348.5Q6284 336 6283.5 332.5Q6283 329 6283 328Q6288 330 6289.0 335.0Q6290 340 6293 342Q6310 354 6310 359Q6310 360 6315.0 364.0Q6320 368 6321 368Q6323 371 6328 372L6346 381Q6347 387 6375.0 386.5Q6403 386 6409 382Q6419 377 6422.5 375.5Q6426 374 6429.5 373.5Q6433 373 6457 365Q6468 365 6468 362Q6472 360 6474 360Q6491 350 6491 345ZM6788 287Q6787 309 6778.0 320.5Q6769 332 6745 334Q6738 329 6726.5 300.5Q6715 272 6712 240Q6702 192 6702 144Q6703 95 6718 72Q6720 68 6722 69Q6727 69 6738 89Q6791 185 6788 287ZM6819 96 6804 57Q6804 55 6775 14Q6766 -5 6741.5 -7.0Q6717 -9 6694 -2Q6663 9 6647.0 24.0Q6631 39 6615.5 74.5Q6600 110 6599 133Q6594 166 6594 175V199Q6594 235 6597 241Q6598 245 6602 262Q6607 304 6626 342Q6663 415 6702 417H6707Q6709 416 6713 416H6726Q6761 413 6769 410Q6784 406 6795 406L6821 401Q6833 402 6852.5 396.0Q6872 390 6873.5 387.0Q6875 384 6879.0 365.0Q6883 346 6884.5 337.5Q6886 329 6887 320Q6895 247 6913 184Q6914 181 6915.0 175.0Q6916 169 6922.0 151.5Q6928 134 6931.0 122.0Q6934 110 6942 90Q6948 75 6960 55Q6982 24 6937 7Q6931 5 6916 5Q6913 5 6897 15Q6887 15 6878 26L6870 28Q6863 35 6858 35Q6856 37 6822 116Q6819 105 6819 96ZM7059 388Q7086 421 7133 423Q7210 426 7247.5 385.0Q7285 344 7287.5 304.0Q7290 264 7267 261Q7234 260 7224 270Q7215 269 7201 283Q7195 286 7185 306L7174 331Q7166 349 7154 351Q7139 345 7139 321Q7143 274 7184 231Q7184 231 7185.5 228.5Q7187 226 7200 212Q7279 125 7282 72Q7282 38 7268 27Q7225 -24 7156.0 -26.0Q7087 -28 7042 17Q7030 29 7030 40Q7024 59 7026 65Q7023 93 7026 107Q7032 139 7073 140Q7088 140 7092 122Q7105 71 7116.5 55.0Q7128 39 7154 40Q7187 42 7185.5 77.0Q7184 112 7152 142Q7142 154 7132.5 160.5Q7123 167 7120 170Q7119 173 7115 176Q7095 192 7064.5 229.0Q7034 266 7032 298Q7028 355 7059 388ZM7435 353 7436 362Q7415 364 7406.5 365.5Q7398 367 7379.0 369.0Q7360 371 7349 375Q7328 382 7325.0 411.5Q7322 441 7344 448Q7364 453 7372.0 453.0Q7380 453 7402 455Q7413 461 7432 462L7447 466Q7447 465 7455 468L7460 489Q7460 505 7469 521Q7469 528 7482 560Q7482 564 7500 618Q7504 623 7530 641Q7546 649 7575 630Q7591 623 7597 611Q7591 605 7591 583Q7590 576 7577 509V481Q7585 480 7603.5 476.0Q7622 472 7648 467Q7698 457 7711 427Q7716 405 7709.0 396.0Q7702 387 7675 383Q7653 382 7617.5 382.0Q7582 382 7565 377Q7563 359 7563 349L7562 334Q7562 327 7553 260Q7547 251 7543 167V94Q7543 76 7546 60Q7547 38 7551 29Q7551 20 7556 -9Q7544 -38 7516.5 -38.0Q7489 -38 7468 -18L7457 -2Q7454 6 7452.5 9.0Q7451 12 7450 16Q7443 36 7439 41Q7433 49 7433.0 53.0Q7433 57 7433 63Q7431 80 7428 92Q7423 97 7423 126Q7425 179 7423 187Q7426 190 7424 225L7427 247Q7427 251 7431 277Q7429 281 7430.0 298.5Q7431 316 7433 323Q7435 335 7435 353ZM7770 627Q7837 627 7864 600Q7864 583 7841 531Q7837 514 7828 504L7815 491Q7810 488 7805 488Q7769 479 7749 502Q7745 508 7739.5 511.0Q7734 514 7731 529Q7722 542 7722 549Q7720 611 7767 627ZM7762 391Q7772 396 7809 381Q7813 377 7821 373L7837 360Q7841 356 7841 347V259Q7841 239 7839 223V217Q7836 176 7844 32Q7847 4 7831 -2Q7814 -2 7809 3Q7805 5 7802 5H7795L7789 3Q7786 3 7778.0 7.5Q7770 12 7767.5 17.0Q7765 22 7759 23Q7748 27 7747 38Q7733 65 7732.5 70.0Q7732 75 7729 81L7724 168Q7724 183 7726 191V215Q7727 226 7728.0 255.5Q7729 285 7731 303Q7729 329 7729.0 338.0Q7729 347 7730 351Q7719 362 7731 381Q7744 391 7756 391ZM8209 661 8225 660Q8248 649 8269 621Q8277 611 8256 604Q8255 601 8245 594Q8223 577 8203.0 556.0Q8183 535 8172 525Q8152 484 8113 478Q8100 478 8087.5 490.5Q8075 503 8081 528Q8086 544 8115 579Q8115 582 8131 605Q8162 645 8209 661ZM8135 287Q8134 309 8125.0 320.5Q8116 332 8092 334Q8085 329 8073.5 300.5Q8062 272 8059 240Q8049 192 8049 144Q8050 95 8065 72Q8067 68 8069 69Q8074 69 8085 89Q8138 185 8135 287ZM8166 96 8151 57Q8151 55 8122 14Q8113 -5 8088.5 -7.0Q8064 -9 8041 -2Q8010 9 7994.0 24.0Q7978 39 7962.5 74.5Q7947 110 7946 133Q7941 166 7941 175V199Q7941 235 7944 241Q7945 245 7949 262Q7954 304 7973 342Q8010 415 8049 417H8054Q8056 416 8060 416H8073Q8108 413 8116 410Q8131 406 8142 406L8168 401Q8180 402 8199.5 396.0Q8219 390 8220.5 387.0Q8222 384 8226.0 365.0Q8230 346 8231.5 337.5Q8233 329 8234 320Q8242 247 8260 184Q8261 181 8262.0 175.0Q8263 169 8269.0 151.5Q8275 134 8278.0 122.0Q8281 110 8289 90Q8295 75 8307 55Q8329 24 8284 7Q8278 5 8263 5Q8260 5 8244 15Q8234 15 8225 26L8217 28Q8210 35 8205 35Q8203 37 8169 116Q8166 105 8166 96ZM8608 37 8602 54 8591 121Q8586 140 8586 155L8590 199Q8590 210 8591 211Q8579 211 8555 182Q8553 179 8549 172Q8507 105 8499 11Q8491 -6 8478 -6Q8451 0 8448 0L8441 -1H8428Q8405 1 8398 17Q8394 22 8394 43V57L8391 112V194Q8391 208 8389 229Q8387 252 8388.0 301.5Q8389 351 8387.0 354.5Q8385 358 8385.0 364.0Q8385 370 8388.0 376.0Q8391 382 8415 389Q8428 397 8437 397Q8451 394 8473 385Q8488 382 8488 356Q8490 313 8488.5 294.0Q8487 275 8489 217Q8563 359 8621 388Q8626 393 8636.0 393.0Q8646 393 8659.0 383.0Q8672 373 8677.0 370.0Q8682 367 8688.5 360.0Q8695 353 8699 351Q8711 331 8704 257Q8703 246 8702.0 237.5Q8701 229 8701.0 201.0Q8701 173 8702 162Q8705 127 8705 121L8710 83Q8720 60 8720.5 47.5Q8721 35 8738 8Q8745 -7 8732 -16Q8712 -26 8710.5 -24.5Q8709 -23 8699.0 -26.5Q8689 -30 8663 -28Q8650 -25 8637 -12L8622 3Q8614 15 8611 29Q8606 34 8608 37Z"/>
</svg>