<svg xmlns="http://www.w3.org/2000/svg" width="640" height="280" viewBox="0 0 640 280" role="img" aria-labelledby="title desc">
  <title id="title">XoraMarket · Sistemas</title>
  <desc id="desc">Tarjeta de XoraMarket. Una composición original de cajas isométricas conectadas por una ruta de luz sobre fondo azul noche.</desc>
  <defs>
    <linearGradient id="bg" x2="1" y2="1"><stop stop-color="#10182b"/><stop offset="1" stop-color="#0b1020"/></linearGradient>
    <linearGradient id="glow" x2="0" y2="1"><stop stop-color="#a78bfa" stop-opacity=".16"/><stop offset="1" stop-color="#a78bfa" stop-opacity="0"/></linearGradient>
    <pattern id="grid" width="28" height="28" patternUnits="userSpaceOnUse"><path d="M 28 0 H 0 V 28" fill="none" stroke="#a78bfa" stroke-opacity=".06"/></pattern>
    <style>
      text{font-family:Inter,'Segoe UI',Arial,sans-serif} .beacon{animation:beacon 6s ease-in-out infinite}.trace{stroke-dasharray:9 190;animation:trace 9s linear infinite}
      @keyframes beacon{0%,100%{opacity:.35}50%{opacity:1}}@keyframes trace{to{stroke-dashoffset:-199}}@media(prefers-reduced-motion:reduce){.beacon,.trace{animation:none}}
    </style>
  </defs>
  <rect x="1" y="1" width="638" height="278" rx="22" fill="url(#bg)" stroke="#263049"/>
  <path d="M373 1 H618 Q639 1 639 22 V258 Q639 279 618 279 H373Z" fill="url(#grid)"/>
  <ellipse cx="505" cy="73" rx="104" ry="71" fill="url(#glow)"/>
  <path d="M32 36H54" stroke="#a78bfa" stroke-width="3" stroke-linecap="round"/>
  <text x="67" y="41" font-size="13" font-weight="650" letter-spacing="2" fill="#c4b5fd">01 / SISTEMAS</text>
  <text x="32" y="122" font-size="40" font-weight="700" letter-spacing="-1.4" fill="#f1f5ff">XoraMarket</text>
  <text x="33" y="152" font-size="15" fill="#a8b2c9">Ideas que toman forma.</text>
  <rect x="32" y="214" width="157" height="34" rx="17" fill="#a78bfa" fill-opacity=".08" stroke="#a78bfa" stroke-opacity=".3"/>
  <text x="49" y="236" font-size="13" font-weight="600" fill="#ddd6fe">Explorar proyecto</text>
  <path d="M173 226l5 5-5 5m-7-5h12" fill="none" stroke="#c4b5fd" stroke-width="1.5" stroke-linecap="round" stroke-linejoin="round"/>
  <g fill="none" stroke="#424061" stroke-linejoin="round"><path d="M421 191l65 37 93-53"/><path d="M486 228v-44"/></g>
  <path class="trace" d="M421 191l65 37 93-53" fill="none" stroke="#67e8f9" stroke-width="2"/>
  <g stroke="#a78bfa" stroke-width="1.4" stroke-linejoin="round">
    <path d="M455 89l47-27 47 27-47 27Z" fill="#2c2650"/>
    <path d="M455 89v54l47 27v-54Z" fill="#171d34"/>
    <path d="M502 116l47-27v54l-47 27Z" fill="#211e40"/>
    <path d="M479 76l46 27v21l-11 6v-20l-47-27" fill="#a78bfa" fill-opacity=".15" stroke-opacity=".65"/>
  </g>
  <g stroke="#67e8f9" stroke-width="1.3" stroke-linejoin="round">
    <path d="M406 157l30-17 30 17-30 18Z" fill="#153441"/>
    <path d="M406 157v35l30 18v-35Z" fill="#142335"/>
    <path d="M436 175l30-18v35l-30 18Z" fill="#173242"/>
    <path d="M419 165v12m6-9v12" stroke-opacity=".5"/>
  </g>
  <g stroke="#fda4af" stroke-width="1.3" stroke-linejoin="round">
    <path d="M537 160l27-16 27 16-27 16Z" fill="#412b40"/>
    <path d="M537 160v32l27 16v-32Z" fill="#282134"/>
    <path d="M564 176l27-16v32l-27 16Z" fill="#352539"/>
  </g>
  <circle class="beacon" cx="581" cy="76" r="5" fill="#67e8f9"/><circle cx="581" cy="76" r="12" fill="none" stroke="#67e8f9" stroke-opacity=".18"/>
  <path d="M392 104h10m-5-5v10M572 230h8m-4-4v8" stroke="#a78bfa" stroke-opacity=".5" stroke-linecap="round"/>
</svg>
