<svg xmlns="http://www.w3.org/2000/svg" width="640" height="280" viewBox="0 0 640 280" role="img" aria-labelledby="title desc">
  <title id="title">Data Science · Data Lab</title>
  <desc id="desc">Tarjeta de Data Science. Un cuaderno con puntos de datos abstractos y un pequeño gráfico ilustrativo sobre fondo azul noche. Los puntos no representan resultados reales.</desc>
  <defs>
    <linearGradient id="bg" x2="1" y2="1"><stop stop-color="#10182b"/><stop offset="1" stop-color="#0b1020"/></linearGradient>
    <radialGradient id="glow"><stop stop-color="#fda4af" stop-opacity=".1"/><stop offset="1" stop-color="#fda4af" stop-opacity="0"/></radialGradient>
    <pattern id="grid" width="28" height="28" patternUnits="userSpaceOnUse"><path d="M28 0H0V28" fill="none" stroke="#fda4af" stroke-opacity=".05"/></pattern>
    <style>
      text{font-family:Inter,'Segoe UI',Arial,sans-serif}.point{animation:point 8s ease-in-out infinite}.point2{animation-delay:-3s}.point3{animation-delay:-5s}
      @keyframes point{0%,100%{opacity:.45}45%,65%{opacity:1}}@media(prefers-reduced-motion:reduce){.point{animation:none}}
    </style>
  </defs>
  <rect x="1" y="1" width="638" height="278" rx="22" fill="url(#bg)" stroke="#263049"/>
  <path d="M373 1H618Q639 1 639 22V258Q639 279 618 279H373Z" fill="url(#grid)"/>
  <circle cx="514" cy="126" r="126" fill="url(#glow)"/>
  <path d="M32 36H54" stroke="#fda4af" stroke-width="3" stroke-linecap="round"/>
  <text x="67" y="41" font-size="13" font-weight="650" letter-spacing="2" fill="#fecdd3">03 / DATA LAB</text>
  <text x="32" y="122" font-size="40" font-weight="700" letter-spacing="-1.4" fill="#f1f5ff">Data Science</text>
  <text x="33" y="152" font-size="15" fill="#a8b2c9">Hacer mejores preguntas.</text>
  <rect x="32" y="214" width="157" height="34" rx="17" fill="#fda4af" fill-opacity=".06" stroke="#fda4af" stroke-opacity=".3"/>
  <text x="49" y="236" font-size="13" font-weight="600" fill="#ffe4e6">Explorar proyecto</text>
  <path d="M173 226l5 5-5 5m-7-5h12" fill="none" stroke="#fecdd3" stroke-width="1.5" stroke-linecap="round" stroke-linejoin="round"/>
  <g stroke-linejoin="round">
    <rect x="409" y="71" width="137" height="164" rx="10" fill="#171c30" stroke="#a78bfa" stroke-opacity=".35"/>
    <rect x="418" y="62" width="137" height="164" rx="10" fill="#161e32" stroke="#a78bfa" stroke-width="1.3"/>
    <path d="M439 62v164" stroke="#a78bfa" stroke-opacity=".3"/>
    <path d="M411 87h15m-15 28h15m-15 28h15m-15 28h15m-15 28h15" stroke="#a78bfa" stroke-width="3" stroke-linecap="round"/>
    <path d="M451 87h30m-30 11h65" stroke="#9aa8c3" stroke-opacity=".65" stroke-width="3" stroke-linecap="round"/>
    <path d="M454 194h80m-80 0v-74" fill="none" stroke="#506079"/>
    <path d="M455 145h80m-80 24h80m-56-48v73m26-73v73" fill="none" stroke="#506079" stroke-opacity=".25" stroke-dasharray="2 4"/>
    <path d="M461 184l17-17 14 7 17-30 17-11" fill="none" stroke="#fda4af" stroke-width="1.5" stroke-dasharray="3 4"/>
  </g>
  <g fill="#fda4af"><circle class="point" cx="462" cy="181" r="4"/><circle class="point point2" cx="474" cy="160" r="4"/><circle cx="490" cy="175" r="3.5"/><circle class="point point3" cx="510" cy="144" r="5"/><circle cx="527" cy="132" r="4"/></g>
  <g fill="#67e8f9"><circle cx="473" cy="183" r="2.5"/><circle class="point point3" cx="487" cy="157" r="3"/><circle cx="506" cy="165" r="2.5"/><circle class="point point2" cx="525" cy="150" r="3"/></g>
  <rect x="518" y="43" width="77" height="53" rx="12" fill="#182636" stroke="#67e8f9" stroke-opacity=".65"/>
  <path d="M533 79v-8m12 8V61m12 18V66m12 13V55m12 24V63" stroke="#67e8f9" stroke-width="4" stroke-linecap="round"/>
  <path d="M571 177l11-6 11 6v13l-11 6-11-6Z" fill="#2a233c" stroke="#fda4af" stroke-opacity=".6"/>
  <path d="M386 100h9m-4.5-4.5v9M577 223h8m-4-4v8" stroke="#a78bfa" stroke-opacity=".5" stroke-linecap="round"/>
</svg>
